<svg xmlns="http://www.w3.org/2000/svg" viewBox="0 0 1440 320"><path fill="#3B7E4E" fill-opacity="0.6" d="M0,128L20,149.3C40,171,80,213,120,218.7C160,224,200,192,240,170.7C280,149,320,139,360,165.3C400,192,440,256,480,250.7C520,245,560,171,600,122.7C640,75,680,53,720,48C760,43,800,53,840,74.7C880,96,920,128,960,117.3C1000,107,1040,53,1080,37.3C1120,21,1160,43,1200,58.7C1240,75,1280,85,1320,96C1360,107,1400,117,1420,122.7L1440,128L1440,320L1420,320C1400,320,1360,320,1320,320C1280,320,1240,320,1200,320C1160,320,1120,320,1080,320C1040,320,1000,320,960,320C920,320,880,320,840,320C800,320,760,320,720,320C680,320,640,320,600,320C560,320,520,320,480,320C440,320,400,320,360,320C320,320,280,320,240,320C200,320,160,320,120,320C80,320,40,320,20,320L0,320Z"></path></svg>